<svg width="32" height="32" viewBox="0 0 32 32" fill="none" xmlns="http://www.w3.org/2000/svg">
  <rect width="32" height="32" rx="4" fill="url(#gradient)"/>
  <defs>
    <linearGradient id="gradient" x1="0%" y1="0%" x2="100%" y2="100%">
      <stop offset="0%" style="stop-color:#3B82F6;stop-opacity:1" />
      <stop offset="100%" style="stop-color:#8B5CF6;stop-opacity:1" />
    </linearGradient>
  </defs>
  
  <!-- Dollar sign -->
  <circle cx="16" cy="16" r="10" fill="white" opacity="0.9"/>
  <path d="M16 9v14M11 13h5c1.657 0 3 1.343 3 3s-1.343 3-3 3H11M11 19h5c1.657 0 3-1.343 3-3s-1.343-3-3-3H11" 
        stroke="#3B82F6" stroke-width="1.5" stroke-linecap="round" stroke-linejoin="round" fill="none"/>
  
  <!-- Mini chart -->
  <rect x="10" y="24" width="2" height="4" fill="#10B981" rx="0.5"/>
  <rect x="13" y="22" width="2" height="6" fill="#F59E0B" rx="0.5"/>
  <rect x="16" y="21" width="2" height="7" fill="#EF4444" rx="0.5"/>
  <rect x="19" y="23" width="2" height="5" fill="#8B5CF6" rx="0.5"/>
</svg>