<svg width="192" height="192" viewBox="0 0 192 192" fill="none" xmlns="http://www.w3.org/2000/svg">
  <rect width="192" height="192" rx="24" fill="url(#gradient)"/>
  <defs>
    <linearGradient id="gradient" x1="0%" y1="0%" x2="100%" y2="100%">
      <stop offset="0%" style="stop-color:#3B82F6;stop-opacity:1" />
      <stop offset="100%" style="stop-color:#8B5CF6;stop-opacity:1" />
    </linearGradient>
  </defs>
  
  <!-- Dollar sign icon -->
  <circle cx="96" cy="96" r="60" fill="white" opacity="0.9"/>
  <path d="M96 56v80M76 76h20c8.837 0 16 7.163 16 16s-7.163 16-16 16H76M76 116h20c8.837 0 16-7.163 16-16s-7.163-16-16-16H76" 
        stroke="#3B82F6" stroke-width="4" stroke-linecap="round" stroke-linejoin="round" fill="none"/>
  
  <!-- Budget chart elements -->
  <rect x="60" y="140" width="8" height="20" fill="#10B981" rx="2"/>
  <rect x="72" y="130" width="8" height="30" fill="#F59E0B" rx="2"/>
  <rect x="84" y="125" width="8" height="35" fill="#EF4444" rx="2"/>
  <rect x="108" y="135" width="8" height="25" fill="#8B5CF6" rx="2"/>
  <rect x="120" y="128" width="8" height="32" fill="#06B6D4" rx="2"/>
  <rect x="132" y="142" width="8" height="18" fill="#84CC16" rx="2"/>
</svg>